<svg xmlns="http://www.w3.org/2000/svg" viewBox="0 0 32 32">
  <rect width="32" height="32" rx="4" fill="#fff"/>
  <path d="M2 8.5v15A2.5 2.5 0 0 0 4.5 26h23A2.5 2.5 0 0 0 30 23.5v-15A2.5 2.5 0 0 0 27.5 6h-23A2.5 2.5 0 0 0 2 8.5z" fill="#f2f2f2"/>
  <path d="M4.5 6h23C28.88 6 30 7.12 30 8.5v.7L16 18 2 9.2v-.7C2 7.12 3.12 6 4.5 6z" fill="#EA4335"/>
  <path d="M2 9.2l14 8.8 14-8.8V23.5A2.5 2.5 0 0 1 27.5 26h-23A2.5 2.5 0 0 1 2 23.5V9.2z" fill="#fff"/>
  <path d="M2 9.2v-.7C2 7.12 3.12 6 4.5 6h.5L16 13.4 27 6h.5C28.88 6 30 7.12 30 8.5v.7L16 18 2 9.2z" fill="#EA4335"/>
</svg>
